<svg 
  xmlns="http://www.w3.org/2000/svg" 
  width="24" 
  height="24" 
  viewBox="0 0 24 24" 
  fill="none" 
  stroke="currentColor" 
  stroke-width="2" 
  stroke-linecap="round" 
  stroke-linejoin="round"
>
  <path d="M22 16.92v3a2 2 0 0 1-2.18 2 19.78 19.78 0 0 1-8.63-3.15A19.5 19.5 0 0 1 3.23 9.81 19.78 19.78 0 0 1 .08 1.18 2 2 0 0 1 2.05 0h3a2 2 0 0 1 2 1.72 12.86 12.86 0 0 0 .72 2.93 2 2 0 0 1-.45 2.11l-1.27 1.27a16 16 0 0 0 6.42 6.42l1.27-1.27a2 2 0 0 1 2.11-.45 12.86 12.86 0 0 0 2.93.72A2 2 0 0 1 22 16.92z"/>
</svg>
